<svg xmlns="http://www.w3.org/2000/svg" viewBox="0 0 2485.34 1059.25"><defs><style>.cls-1{fill:#aa2929;}.cls-2{fill:#141414;}</style></defs><title>대지 5</title><g id="레이어_2" data-name="레이어 2"><path d="M1487.55,228.75v-35.6l-21.75-21.76V123.44l-20.93-21v6.29l7.57,7.11v46.69l-9.32,9.29v40.37l23.14,23.14v5.87l1.72,1.72V215.37l-8.86-8.86V206h0V171.82l1.79,1.79v30.23l9.76,9.76v36l-11.53,11.53v-9.26l-17.79-17.79V206.62l0,0V159.85l7.11-7.11V125.62l-3.58,3.13v19l-19.55,19.55v46.27l-11.18,11.18-3.52,3.52v46.1l41.21,23.79,41.21-23.79V234.28Zm-45.77,51-16.44-16.44V242.47l9.8,9.8v16.45l6.64,6.64Z"/><path class="cls-1" d="M259.6,873.16q0,32.1-22.29,54.39-23.2,23.2-55.28,23.18H51.83V326.55H182q32.1,0,55.28,23.18Q259.58,372,259.6,405Zm-156-494.89V899h52.61a49.8,49.8,0,0,0,36.56-15.16q15.15-16.93,15.16-37.45V430.88q0-20.5-15.16-37.45a49.86,49.86,0,0,0-36.56-15.16Z"/><path d="M500.35,326.55l77.58,624.18H520.86l-16.05-156H444.17l-16.94,156H370.16l77.58-624.18ZM499.46,743l-25-237.19L449.52,743Z"/><path d="M849.89,378.27H772.32V950.73H719.71V378.27H642.13V326.55H849.89Z"/><path d="M1080.83,326.55l77.58,624.18h-57.07l-16.05-156h-60.63l-16.94,156H950.64l77.58-624.18ZM1079.94,743l-25-237.19L1030,743Z"/><path class="cls-1" d="M1476.73,600.3q0,16.05-10.7,26.75a12.72,12.72,0,0,1-2.67,2.23,4.81,4.81,0,0,0-1.78,2.23q-11.6,7.15-22.29,7.13a37,37,0,0,1,22.29,7.13l4.46,4.46q10.7,10.7,10.7,26.75V873.16q0,32.1-22.29,54.39-23.2,23.2-55.29,23.18H1269V326.55h130.19q32.1,0,55.29,23.18,22.28,22.3,22.29,55.28Zm-156-222V612.78h52.61a49.81,49.81,0,0,0,36.56-15.16Q1425,580.69,1425,561.06V430.88q0-20.5-15.16-37.45a49.86,49.86,0,0,0-36.56-15.16ZM1373.3,664.5h-52.61V899h52.61a49.8,49.8,0,0,0,36.56-15.16Q1425,866.93,1425,846.41V717.11q0-20.5-15.16-37.45A49.86,49.86,0,0,0,1373.3,664.5Z"/><path d="M1717.49,326.55l77.58,624.18H1738l-16.05-156h-60.63l-16.94,156H1587.3l77.58-624.18ZM1716.6,743l-25-237.19-25,237.19Z"/><path d="M2112.5,482.6h-51.72V430.88q0-20.5-15.16-37.45a51.67,51.67,0,0,0-73.12,0q-16.05,16.05-16,37.45l1.78,51.72v25.86q1.78,61.53,78.47,115,77.58,51.73,75.79,171.2v78.47q0,32.1-22.29,54.39-23.2,23.2-55.29,23.18h-51.72q-32.1,0-55.28-23.18t-23.18-54.39V794.69h51.72v51.72q0,21.4,16,37.45a51.66,51.66,0,0,0,73.12,0q15.15-16.93,15.16-37.45V794.69l-.89-25.86q-.9-60.63-78.47-115-77.58-52.6-76.69-171.2V405q0-32.1,23.18-55.28t55.28-23.18h51.72q32.1,0,55.29,23.18Q2112.49,372,2112.5,405Z"/><path d="M2437.06,378.27H2281V612.78h156V664.5H2281V899h156v51.72H2229.3V326.55h207.76Z"/><path d="M117.28,153.94H101.91V138.56a16.34,16.34,0,0,0-4.51-11.14,15.36,15.36,0,0,0-21.74,0,15.26,15.26,0,0,0-4.77,11.14l.53,15.38v7.69q.53,18.29,23.33,34.2,23.07,15.38,22.54,50.9v23.33a22,22,0,0,1-6.63,16.17,22.43,22.43,0,0,1-16.44,6.89H78.84a22.43,22.43,0,0,1-16.44-6.89,22.12,22.12,0,0,1-6.89-16.17V246.73H70.89v15.38a15.26,15.26,0,0,0,4.77,11.14,15.36,15.36,0,0,0,21.74,0,16.32,16.32,0,0,0,4.51-11.14V246.73l-.27-7.69q-.27-18-23.33-34.2-23.07-15.64-22.8-50.9V130.87a23.54,23.54,0,0,1,23.33-23.33H94.22a23.08,23.08,0,0,1,23.07,23.33Z"/><path d="M294.65,107.54l23.07,185.58h-17L296,246.73h-18l-5,46.4h-17L279,107.54Zm-.27,123.81L287,160.83l-7.42,70.52Z"/><path d="M480.49,107.54,503,245.41V107.54h15.38V293.13H494.55L472,155V293.13H456.63V107.54Z"/><path d="M721.22,153.94H705.84V138.56a16.34,16.34,0,0,0-4.51-11.14,14.83,14.83,0,0,0-10.87-4.51,15.39,15.39,0,0,0-15.64,15.64V262.11a15.39,15.39,0,0,0,15.64,15.64,14.81,14.81,0,0,0,10.87-4.51,16.32,16.32,0,0,0,4.51-11.14v-46.4H690.47V200.34h30.75v69.73a22,22,0,0,1-6.63,16.17,22.43,22.43,0,0,1-16.44,6.89H682.51a23.55,23.55,0,0,1-23.07-23.07V130.87a22.43,22.43,0,0,1,6.89-16.44,22.14,22.14,0,0,1,16.17-6.89h15.64a23.08,23.08,0,0,1,23.07,23.33Z"/><path d="M876.58,107.54,890.63,239l13.79-131.5h17L898.32,293.13H882.68L859.61,107.54Z"/><path d="M1075.68,107.54V293.13H1060.3V107.54Z"/><path d="M1278.76,153.94h-15.38V138.56a16.34,16.34,0,0,0-4.51-11.14,15.36,15.36,0,0,0-21.74,0,15.26,15.26,0,0,0-4.77,11.14l.53,15.38v7.69q.53,18.29,23.33,34.2,23.07,15.38,22.54,50.9v23.33a22,22,0,0,1-6.63,16.17,22.43,22.43,0,0,1-16.44,6.89h-15.38a22.43,22.43,0,0,1-16.44-6.89,22.12,22.12,0,0,1-6.89-16.17V246.73h15.38v15.38a15.26,15.26,0,0,0,4.77,11.14,15.36,15.36,0,0,0,21.74,0,16.32,16.32,0,0,0,4.51-11.14V246.73l-.27-7.69q-.27-18-23.33-34.2-23.07-15.64-22.8-50.9V130.87a23.54,23.54,0,0,1,23.33-23.33h15.38a23.08,23.08,0,0,1,23.07,23.33Z"/><path d="M1675.91,122.92h-46.4v69.73h46.4V208h-46.4v85.1h-15.38V107.54h61.77Z"/><path d="M1874.48,122.92h-46.4v69.73h46.4V208h-46.4v69.73h46.4v15.38h-61.77V107.54h61.77Z"/><path d="M2074.11,188.94a10.79,10.79,0,0,1-3.18,8,3.78,3.78,0,0,1-.79.66,1.43,1.43,0,0,0-.53.66,12.67,12.67,0,0,1-6.63,2.12,11,11,0,0,1,6.63,2.12l1.32,1.33a10.79,10.79,0,0,1,3.18,8v81.39h-15.38V223.67a16.34,16.34,0,0,0-4.51-11.13,14.82,14.82,0,0,0-10.87-4.51h-15.64v85.1h-15.38V107.54H2051a23.08,23.08,0,0,1,23.07,23.33Zm-46.4-66v69.73h15.64a14.81,14.81,0,0,0,10.87-4.51,16,16,0,0,0,4.51-10.87V138.56a16.34,16.34,0,0,0-4.51-11.14,14.83,14.83,0,0,0-10.87-4.51Z"/><path d="M2276.93,188.94a10.79,10.79,0,0,1-3.18,8,3.78,3.78,0,0,1-.79.66,1.43,1.43,0,0,0-.53.66,12.67,12.67,0,0,1-6.63,2.12,11,11,0,0,1,6.63,2.12l1.32,1.33a10.79,10.79,0,0,1,3.18,8v81.39h-15.38V223.67a16.34,16.34,0,0,0-4.51-11.13,14.82,14.82,0,0,0-10.87-4.51h-15.64v85.1h-15.38V107.54h38.71a23.08,23.08,0,0,1,23.07,23.33Zm-46.4-66v69.73h15.64a14.81,14.81,0,0,0,10.87-4.51,16,16,0,0,0,4.51-10.87V138.56a16.34,16.34,0,0,0-4.51-11.14,14.83,14.83,0,0,0-10.87-4.51Z"/><path d="M2433.35,107.54V293.13H2418V107.54Z"/><rect class="cls-2" width="2485.34" height="56.15"/><rect class="cls-2" y="1003.1" width="2485.34" height="56.15"/></g></svg>