<svg xmlns="http://www.w3.org/2000/svg" viewBox="0 0 4121.72 1152.94"><defs><style>.cls-1,.cls-6{fill:#141414;}.cls-2{fill:#aa2929;}.cls-3,.cls-7{fill:#fff;}.cls-4,.cls-5{fill:none;stroke:#141414;stroke-miterlimit:10;stroke-width:10.24px;}.cls-5{stroke-dasharray:147.85 4.62;}.cls-6,.cls-7{stroke:#fff;stroke-linecap:round;stroke-linejoin:round;stroke-width:10.9px;}</style></defs><title>대지 4</title><g id="레이어_2" data-name="레이어 2"><path class="cls-1" d="M56,66.73H44.13V54.82a12.66,12.66,0,0,0-3.49-8.62,11.48,11.48,0,0,0-8.42-3.49,11.48,11.48,0,0,0-8.42,3.49,11.82,11.82,0,0,0-3.7,8.62l.41,11.91v6q.41,14.17,18.07,26.49Q56.45,111.08,56,138.59v18.07a17,17,0,0,1-5.13,12.53,17.38,17.38,0,0,1-12.73,5.34H26.27a17.37,17.37,0,0,1-12.73-5.34A17.14,17.14,0,0,1,8.2,156.66V138.59H20.11V150.5a11.82,11.82,0,0,0,3.7,8.62,11.46,11.46,0,0,0,8.42,3.49,11.47,11.47,0,0,0,8.42-3.49,12.64,12.64,0,0,0,3.49-8.62V138.59l-.21-6q-.21-14-18.07-26.49Q8,94,8.2,66.73V48.86a17.38,17.38,0,0,1,5.34-12.73A17.38,17.38,0,0,1,26.27,30.8H38.18A17.88,17.88,0,0,1,56,48.86Z"/><path class="cls-1" d="M152.33,30.8l17.86,143.72H157.05l-3.7-35.93h-14l-3.9,35.93H122.35L140.22,30.8Zm-.21,95.88-5.75-54.61-5.75,54.61Z"/><path class="cls-1" d="M255.19,30.8l17.45,106.77V30.8h11.91V174.52H266.08l-17.45-107v107H236.72V30.8Z"/><path class="cls-1" d="M400.56,66.73H388.65V54.82a12.66,12.66,0,0,0-3.49-8.62,11.48,11.48,0,0,0-8.42-3.49,11.92,11.92,0,0,0-12.11,12.11V150.5a11.92,11.92,0,0,0,12.11,12.11,11.47,11.47,0,0,0,8.42-3.49,12.64,12.64,0,0,0,3.49-8.62V114.57H376.74V102.66h23.82v54a17,17,0,0,1-5.13,12.53,17.38,17.38,0,0,1-12.73,5.34H370.58a18.24,18.24,0,0,1-17.86-17.86V48.86a17.38,17.38,0,0,1,5.34-12.73,17.15,17.15,0,0,1,12.52-5.34H382.7a17.88,17.88,0,0,1,17.86,18.07Z"/><path class="cls-1" d="M479.81,30.8l10.88,101.84L501.37,30.8h13.14L496.65,174.52H484.53L466.67,30.8Z"/><path class="cls-1" d="M592.94,30.8V174.52H581V30.8Z"/><path class="cls-1" d="M709.15,66.73H697.24V54.82a12.66,12.66,0,0,0-3.49-8.62,11.9,11.9,0,0,0-16.84,0,11.82,11.82,0,0,0-3.7,8.62l.41,11.91v6q.41,14.17,18.07,26.49,17.86,11.91,17.45,39.42v18.07A17,17,0,0,1,704,169.18a17.37,17.37,0,0,1-12.73,5.34H679.38a17.37,17.37,0,0,1-12.73-5.34,17.14,17.14,0,0,1-5.34-12.53V138.59h11.91V150.5a11.82,11.82,0,0,0,3.7,8.62,11.89,11.89,0,0,0,16.84,0,12.64,12.64,0,0,0,3.49-8.62V138.59l-.21-6q-.21-14-18.07-26.49Q661.1,94,661.31,66.73V48.86a17.38,17.38,0,0,1,5.34-12.73,17.38,17.38,0,0,1,12.73-5.34h11.91a17.87,17.87,0,0,1,17.86,18.07Z"/><path class="cls-1" d="M934.58,42.7H898.65v54h35.93v11.91H898.65v65.91H886.74V30.8h47.84Z"/><path class="cls-1" d="M1047.3,42.7h-35.93v54h35.93v11.91h-35.93v54h35.93v11.91H999.46V30.8h47.84Z"/><path class="cls-1" d="M1160.84,93.83a8.36,8.36,0,0,1-2.46,6.16,2.93,2.93,0,0,1-.62.51,1.11,1.11,0,0,0-.41.51,9.8,9.8,0,0,1-5.13,1.64,8.52,8.52,0,0,1,5.13,1.64l1,1a8.36,8.36,0,0,1,2.46,6.16v63h-11.91V120.73a12.65,12.65,0,0,0-3.49-8.62,11.48,11.48,0,0,0-8.42-3.49h-12.11v65.91H1113V30.8h30a17.88,17.88,0,0,1,17.86,18.07ZM1124.91,42.7v54H1137a11.47,11.47,0,0,0,8.42-3.49,12.41,12.41,0,0,0,3.49-8.42v-30a12.65,12.65,0,0,0-3.49-8.62A11.48,11.48,0,0,0,1137,42.7Z"/><path class="cls-1" d="M1276.85,93.83a8.36,8.36,0,0,1-2.46,6.16,2.93,2.93,0,0,1-.62.51,1.11,1.11,0,0,0-.41.51,9.8,9.8,0,0,1-5.13,1.64,8.52,8.52,0,0,1,5.13,1.64l1,1a8.36,8.36,0,0,1,2.46,6.16v63h-11.91V120.73a12.65,12.65,0,0,0-3.49-8.62,11.48,11.48,0,0,0-8.42-3.49h-12.11v65.91H1229V30.8h30a17.88,17.88,0,0,1,17.86,18.07ZM1240.92,42.7v54H1253a11.47,11.47,0,0,0,8.42-3.49,12.41,12.41,0,0,0,3.49-8.42v-30a12.65,12.65,0,0,0-3.49-8.62A11.48,11.48,0,0,0,1253,42.7Z"/><path class="cls-1" d="M1356.92,30.8V174.52H1345V30.8Z"/><path class="cls-1" d="M1583,156.66a17,17,0,0,1-5.13,12.53,17.37,17.37,0,0,1-12.73,5.34h-30V30.8h30A17.88,17.88,0,0,1,1583,48.86ZM1547,42.7V162.61h12.11a11.47,11.47,0,0,0,8.42-3.49,12.64,12.64,0,0,0,3.49-8.62V54.82a12.65,12.65,0,0,0-3.49-8.62,11.48,11.48,0,0,0-8.42-3.49Z"/><path class="cls-1" d="M1679.48,30.8l17.86,143.72H1684.2l-3.7-35.93h-14l-3.9,35.93H1649.5L1667.36,30.8Zm-.21,95.88-5.75-54.61-5.75,54.61Z"/><path class="cls-1" d="M1801,42.7h-17.86V174.52H1771V42.7h-17.86V30.8H1801Z"/><path class="cls-1" d="M1895.27,30.8l17.86,143.72H1900l-3.7-35.93h-14l-3.9,35.93h-13.14L1883.15,30.8Zm-.21,95.88-5.75-54.61-5.75,54.61Z"/><path class="cls-1" d="M2027.49,93.83A8.36,8.36,0,0,1,2025,100a2.93,2.93,0,0,1-.62.51,1.11,1.11,0,0,0-.41.51,9.8,9.8,0,0,1-5.13,1.64,8.52,8.52,0,0,1,5.13,1.64l1,1a8.36,8.36,0,0,1,2.46,6.16v45.17a17,17,0,0,1-5.13,12.53,17.37,17.37,0,0,1-12.73,5.34h-30V30.8h30a17.88,17.88,0,0,1,17.86,18.07ZM1991.56,42.7v54h12.11a11.47,11.47,0,0,0,8.42-3.49,12.41,12.41,0,0,0,3.49-8.42v-30a12.65,12.65,0,0,0-3.49-8.62,11.48,11.48,0,0,0-8.42-3.49Zm12.11,65.91h-12.11v54h12.11a11.47,11.47,0,0,0,8.42-3.49,12.64,12.64,0,0,0,3.49-8.62V120.73a12.65,12.65,0,0,0-3.49-8.62A11.48,11.48,0,0,0,2003.67,108.61Z"/><path class="cls-1" d="M2124,30.8l17.86,143.72h-13.14l-3.7-35.93h-14l-3.9,35.93H2094L2111.88,30.8Zm-.21,95.88L2118,72.07l-5.75,54.61Z"/><path class="cls-1" d="M2256,66.73H2244.1V54.82a12.66,12.66,0,0,0-3.49-8.62,11.9,11.9,0,0,0-16.84,0,11.82,11.82,0,0,0-3.7,8.62l.41,11.91v6q.41,14.17,18.07,26.49,17.86,11.91,17.45,39.42v18.07a17,17,0,0,1-5.13,12.53,17.37,17.37,0,0,1-12.73,5.34h-11.91a17.37,17.37,0,0,1-12.73-5.34,17.14,17.14,0,0,1-5.34-12.53V138.59h11.91V150.5a11.82,11.82,0,0,0,3.7,8.62,11.89,11.89,0,0,0,16.84,0,12.64,12.64,0,0,0,3.49-8.62V138.59l-.21-6q-.21-14-18.07-26.49Q2208,94,2208.17,66.73V48.86a17.38,17.38,0,0,1,5.34-12.73,17.38,17.38,0,0,1,12.73-5.34h11.91A17.87,17.87,0,0,1,2256,48.86Z"/><path class="cls-1" d="M2371.81,42.7h-35.93v54h35.93v11.91h-35.93v54h35.93v11.91H2324V30.8h47.84Z"/><rect class="cls-2" x="7.11" y="211.48" width="770.54" height="770.54"/><path class="cls-3" d="M770.65,218.48V975H14.11V218.48H770.65m14-14H.11V989H784.65V204.48Z"/><path class="cls-3" d="M506.31,362.33H374.51q-4.44,15.05-10.61,38.92t-12.83,46.44q-6.63,22.56-11.5,39.81t-5.75,18.13q8.83,8,25.21,12.38T394,526.85q18.58,4.44,38,9.73a163.36,163.36,0,0,1,34.94,13.71,80.49,80.49,0,0,1,25.21,20.79q9.72,12.4,8.85,31.84-1.78,33.63-16.36,50T451,674.58a77.5,77.5,0,0,1-37.59,1.33q-18.58-4-29.19-11.06-15.92-11.49-41.13-38.48T297.56,558.7l-33.61,50.42q-20.36,25.66-44.23,42a253.61,253.61,0,0,1-52.63,27.42A543.78,543.78,0,0,1,105.16,698Q72,706.43,34,715.27L23.34,697.57q76.07-46,115.88-92.88T196.27,514q17.25-43.79,19-82.71t3.54-69H138.34L95,385.33l-43.34-23V344.64H230.33q-.89,0,14.15-.44t36.27-.44q21.23,0,43.79.44t36.71.44l77.84-34.5,67.23,34.5ZM340,257.06q13.27,15.05,4.42,29.19t-27.86,22.56a107.88,107.88,0,0,1-42,8.85q-23,.45-37.15-11.94-5.31-4.42-14.15-11.94t-19.46-17.25q-10.62-9.72-21.23-21.23a198.51,198.51,0,0,1-19.46-24.77A199.88,199.88,0,0,1,225,214.61q26.54-1.76,57.5,6.19T340,257.06Zm421.05,705v16.81H268.37q-21.23,0-32.29-8.4t-15.48-19q-5.31-11.51-6.19-27.42V825H187.87q-8.85,0-8.85-8.85t8.85-8.85H614.23V710H336.48l-74.3,34.5L187.87,710V693.15H603.61l74.3-34.5,74.3,34.5V824.07H360.36V945.25a19.58,19.58,0,0,0,1.77,8.85q3.52,8,14.15,8H562l99.07-46.88ZM629.26,470.24H558.5a61.56,61.56,0,0,1-22.56,24.53,61.92,61.92,0,0,1-94.21-52.84H629.26Zm-8.84-219.37-48.65-5.31q-8-1.76-8-8.85,0-8,8.85-8h.88l184.87,17.69V572q0,28.32-21.67,46a153.32,153.32,0,0,1-47.32,26.54q-30.08,10.61-69,15.92Z"/><polyline class="cls-4" points="779.62 903.99 779.62 983.99 699.62 983.99"/><line class="cls-5" x1="695" y1="983.99" x2="87.43" y2="983.99"/><polyline class="cls-4" points="85.12 983.99 5.12 983.99 5.12 903.99"/><line class="cls-5" x1="5.12" y1="899.37" x2="5.12" y2="291.8"/><polyline class="cls-4" points="5.12 289.49 5.12 209.49 85.12 209.49"/><line class="cls-5" x1="89.74" y1="209.49" x2="697.31" y2="209.49"/><polyline class="cls-4" points="699.62 209.49 779.62 209.49 779.62 289.49"/><line class="cls-5" x1="779.62" y1="294.11" x2="779.62" y2="901.68"/><path class="cls-2" d="M711.32,277.82V915.69H73.45V277.82H711.32m7-7H66.45V922.69H718.32V270.82Z"/><circle class="cls-2" cx="693.93" cy="295.91" r="9.36"/><circle class="cls-2" cx="217.04" cy="707.73" r="8.25"/><rect class="cls-1" x="802.07" y="211.48" width="770.54" height="770.54"/><path class="cls-3" d="M1565.61,218.48V975H809.07V218.48h756.54m14-14H795.07V989h784.54V204.48Z"/><polyline class="cls-4" points="1574.58 903.99 1574.58 983.99 1494.58 983.99"/><line class="cls-5" x1="1489.96" y1="983.99" x2="882.39" y2="983.99"/><polyline class="cls-4" points="880.08 983.99 800.08 983.99 800.08 903.99"/><line class="cls-5" x1="800.08" y1="899.37" x2="800.08" y2="291.8"/><polyline class="cls-4" points="800.08 289.49 800.08 209.49 880.08 209.49"/><line class="cls-5" x1="884.7" y1="209.49" x2="1492.27" y2="209.49"/><polyline class="cls-4" points="1494.58 209.49 1574.58 209.49 1574.58 289.49"/><line class="cls-5" x1="1574.58" y1="294.11" x2="1574.58" y2="901.68"/><path class="cls-3" d="M917.81,367l-41.73,22.14L834.35,367v-17h321.91l66.43-30.66,66.43,30.66v17Zm157.55,17a263.63,263.63,0,0,1,77.5,11.47q37.46,11.46,65.15,31.84a171.33,171.33,0,0,1,44.71,48,112,112,0,0,1,17,59.86q0,30.58-17,58.6A168.77,168.77,0,0,1,1218,642.18q-27.68,20.38-65.15,32.27a260,260,0,0,1-155.42,0q-37-11.9-64.72-32.27a163,163,0,0,1-44.28-48.41q-16.61-28-16.61-58.6a114.05,114.05,0,0,1,16.61-59.86,165.37,165.37,0,0,1,44.28-48q27.66-20.38,64.72-31.84A262.25,262.25,0,0,1,1075.35,384Zm52.8-124.34q12.77,14.49,4.26,28.1t-26.83,21.72a103.86,103.86,0,0,1-40.45,8.52q-22.16.44-35.77-11.5-5.11-4.25-13.63-11.5T997,278.4Q986.79,269,976.57,258a191.11,191.11,0,0,1-18.73-23.84,192.43,192.43,0,0,1,59.61-15.33q25.55-1.7,55.35,6T1128.16,259.67Zm412.18,700.88V975H1066q-20.44,0-31.08-7.24T1020,951.18q-5.11-10.22-6-24.7V839.62H988.49q-8.52,0-8.52-7.66,0-8.5,8.52-8.52H1399V738.28H1131.56L1060,768.08l-71.54-29.81V722.95h400.26l71.54-30.66,71.54,30.66V838.77H1154.56V945.22a16.8,16.8,0,0,0,1.7,7.66q3.39,7.66,13.63,7.66h178.84l95.38-41.73ZM1075.35,671q23,0,39.18-11.92t26.83-31.51a160.67,160.67,0,0,0,15.76-43.86,237,237,0,0,0,5.11-49,241.19,241.19,0,0,0-5.11-49.82,160.82,160.82,0,0,0-15.76-43.86q-10.66-19.58-26.83-31.51t-39.18-11.92q-23.85,0-40,11.92t-26.83,31.51a150.85,150.85,0,0,0-15.33,43.86,262,262,0,0,0-4.68,49.82,257.48,257.48,0,0,0,4.68,49,150.73,150.73,0,0,0,15.33,43.86q10.64,19.6,26.83,31.51T1075.35,671Zm341.5-209.5h-92a59.27,59.27,0,0,1-21.72,23.62,59.61,59.61,0,0,1-90.7-50.87h204.39Zm0,161h-92a59.27,59.27,0,0,1-21.72,23.62,59.61,59.61,0,0,1-90.7-50.87h204.39Zm119.23-24.7q0,27.27-20.86,44.28a147.6,147.6,0,0,1-45.56,25.55q-29,10.22-66.43,15.33V265.63l-46.84-5.11a6.85,6.85,0,0,1-5.54-2.56,8,8,0,0,1-2.13-5.11q0-8.5,8.52-8.52h.85l178,17Z"/><path class="cls-1" d="M1506.28,277.82V915.69H868.41V277.82h637.87m7-7H861.41V922.69h651.87V270.82Z"/><circle class="cls-1" cx="881.77" cy="360.76" r="8.07"/><circle class="cls-1" cx="1521.14" cy="829.32" r="3.48"/><rect class="cls-1" x="1597.03" y="211.48" width="770.54" height="770.54"/><path class="cls-3" d="M2360.57,218.48V975H1604V218.48h756.54m14-14H1590V989h784.54V204.48Z"/><polyline class="cls-4" points="2369.54 903.99 2369.54 983.99 2289.54 983.99"/><line class="cls-5" x1="2284.92" y1="983.99" x2="1677.35" y2="983.99"/><polyline class="cls-4" points="1675.04 983.99 1595.04 983.99 1595.04 903.99"/><line class="cls-5" x1="1595.04" y1="899.37" x2="1595.04" y2="291.8"/><polyline class="cls-4" points="1595.04 289.49 1595.04 209.49 1675.04 209.49"/><line class="cls-5" x1="1679.66" y1="209.49" x2="2287.23" y2="209.49"/><polyline class="cls-4" points="2289.54 209.49 2369.54 209.49 2369.54 289.49"/><line class="cls-5" x1="2369.54" y1="294.11" x2="2369.54" y2="901.68"/><path class="cls-3" d="M2040.06,301.87V598.06q0,27.81-21.28,45.17a150.56,150.56,0,0,1-46.47,26.06q-29.54,10.42-67.75,15.63V643.22H1773.41a124.73,124.73,0,0,1-34.31,21.28,252.17,252.17,0,0,1-36.92,12.59,344.65,344.65,0,0,1-42.56,7.82V306.21L1611.85,301a7,7,0,0,1-5.65-2.61,8.21,8.21,0,0,1-2.17-5.21q0-8.67,8.69-8.69h.87l181.54,17.37v82.52h109.44V306.21L1856.79,301a7,7,0,0,1-5.65-2.61,8.14,8.14,0,0,1-2.17-5.21q0-8.67,8.69-8.69h.87Zm-135.5,313.56V412.18H1795.12V598.86a52.19,52.19,0,0,1-2.61,16.57Zm445.59,252.76q0,20.85-11.29,36a102.65,102.65,0,0,1-27.8,25.62,185.55,185.55,0,0,1-35.61,17.37,311,311,0,0,1-36,10.86q-16.94,3.91-28.66,5.65c-7.82,1.15-12,1.74-12.59,1.74V743.11H1942.78l-73.83,33-73-33v-16.5h554.16Zm10.42-277.08q0,27.81-18.24,44.73a139.42,139.42,0,0,1-40.82,26.49q-26.06,10.42-59.06,15.64V479.06h-55.59v112q0,27.81-18.24,44.73a139.42,139.42,0,0,1-40.82,26.49q-26.06,10.42-59.06,15.64V276.68L2021,271.47q-7.82-1.73-7.82-8.69,0-7.82,8.69-7.82h.87l164.16,17.37V451.26h55.59V249.83l-47.77-5.23q-7.82-1.75-7.82-8.73,0-7.84,8.69-7.85h.87l164.16,17.37Z"/><path class="cls-1" d="M2301.24,277.82V915.69H1663.37V277.82h637.87m7-7H1656.37V922.69h651.87V270.82Z"/><circle class="cls-1" cx="1686.15" cy="653.22" r="11.83"/><rect class="cls-1" x="2391.99" y="211.5" width="770.54" height="770.54"/><path class="cls-3" d="M3155.54,218.5V975H2399V218.5h756.54m14-14H2385V989h784.54V204.5Z"/><polyline class="cls-4" points="3164.5 904 3164.5 984 3084.5 984"/><line class="cls-5" x1="3079.88" y1="984" x2="2472.31" y2="984"/><polyline class="cls-4" points="2470 984 2390 984 2390 904"/><line class="cls-5" x1="2390" y1="899.38" x2="2390" y2="291.81"/><polyline class="cls-4" points="2390 289.5 2390 209.5 2470 209.5"/><line class="cls-5" x1="2474.62" y1="209.5" x2="3082.19" y2="209.5"/><polyline class="cls-4" points="3084.5 209.5 3164.5 209.5 3164.5 289.5"/><line class="cls-5" x1="3164.5" y1="294.12" x2="3164.5" y2="901.69"/><path class="cls-3" d="M2494.78,819.18l-47.89,21.11L2399,819.18V802.95h343.37q47.07-3.23,77.52-7.71t50.33-10.55q19.88-6.09,31.25-14.61a90.62,90.62,0,0,0,19.89-20.7A312.69,312.69,0,0,0,2938.8,721q8.92-16.23,22.73-37.34l5.68,8.12q7.31,36.53-16.23,64.13-10.56,12.18-28.41,23.54t-47.08,20.29q-29.22,8.94-70.62,14.21t-98.22,5.28Zm342.55-500.84q0,82.8-2.44,147.33t-20.7,114q-18.26,49.52-59.26,85.23t-118.11,60.88l-9.74-14.61q37.33-54.37,53.17-114t20.29-112.43q4.45-52.76,1.62-93.35t-2.84-57.63H2517.51l-39.78,21.11L2438,333.76V318.34h263l68.19-31.66ZM2619.79,811.07H2501.27V532.64a306.41,306.41,0,0,1,59.26,14.61A150.35,150.35,0,0,1,2601.12,572q18.66,15.83,18.67,41.8Zm478.93-307.65a56.81,56.81,0,0,1,56.82,56.82H3025.66V859.77q0,26-19.89,42.21a141.24,141.24,0,0,1-43.43,24.35q-27.61,9.74-63.32,14.61V272.88L2854.38,268q-7.31-1.62-7.31-8.12,0-7.31,8.12-7.31h.81l169.65,16.24V533.45h22.73a56.38,56.38,0,0,1,50.33-30Z"/><path class="cls-1" d="M3096.2,277.83V915.7H2458.33V277.83H3096.2m7-7H2451.33V922.7H3103.2V270.83Z"/><circle class="cls-1" cx="2691.66" cy="676.72" r="11.67"/><circle class="cls-1" cx="3121.3" cy="548.73" r="6.26"/><polygon class="cls-6" points="4116.27 1005.15 3651.54 788.45 3651.54 81.99 4116.27 298.7 4116.27 1005.15"/><polygon class="cls-7" points="4040.54 1028.9 3575.81 812.2 3575.81 105.74 4040.54 322.45 4040.54 1028.9"/><polygon class="cls-6" points="3964.81 1052.62 3500.09 835.91 3500.09 129.46 3964.81 346.16 3964.81 1052.62"/><polygon class="cls-7" points="3889.09 1076.33 3424.36 859.63 3424.36 153.17 3889.09 369.88 3889.09 1076.33"/><polygon class="cls-6" points="3813.36 1100.05 3348.63 883.34 3348.63 176.89 3813.36 393.6 3813.36 1100.05"/><polygon class="cls-7" points="3737.63 1123.77 3272.9 907.06 3272.9 200.6 3737.63 417.31 3737.63 1123.77"/><polygon class="cls-6" points="3661.9 1147.48 3197.17 930.78 3197.17 224.32 3661.9 441.03 3661.9 1147.48"/><path class="cls-3" d="M3398.3,917.57l-50.94-74.69V778.16l30.37,44.54v51l20.57,30.17Zm141.82-92V715.2l-67.39-98.85V467.76l-64.85-95.26V392l23.47,33v144.7L3402.47,585V710.09l71.71,105.15v18.18l5.34,7.83V755.81l-27.47-40.27V608l5.55,8.14v93.68l30.25,44.36V865.72L3452.1,884.8V856.11L3397,775.29v-85.1l.07.09v-145l22-11.76v-84L3408,454v59l-60.59,32.34V688.74l-34.65,18.49-10.91,5.82V855.92l127.71,133.29L3557.25,975V850.64Z"/></g></svg>