<svg xmlns="http://www.w3.org/2000/svg" viewBox="0 0 4378.34 1427.61"><defs><style>.cls-1{font-size:318.67px;font-family:Boycott, Boycott;letter-spacing:0.6em;}.cls-2{letter-spacing:0.56em;}.cls-3{letter-spacing:0.6em;}.cls-4{font-size:793.04px;font-family:VIPERNORA, VIPER NORA;letter-spacing:0.1em;}.cls-5{fill:#aa2929;}</style></defs><title>대지 7</title><g id="레이어_2" data-name="레이어 2"><text class="cls-1" transform="translate(22.92 335.69)">S<tspan class="cls-2" x="362.16" y="0">A</tspan><tspan class="cls-3" x="723.9" y="0">NGVIS FERRI</tspan></text><path d="M2636.84,273.11v-68.2l-41.65-41.68V71.38L2555.1,31.19v12l14.51,13.62V146.3l-17.86,17.8v77.32l44.33,44.33V297l3.3,3.3V247.48l-17-17v-.91h0V164.05l3.43,3.43v57.91l18.7,18.7V313l-22.09,22.09V317.38l-34.07-34.07v-52.6l0,0V141.12L2562,127.5V75.56l-6.86,6V118l-37.45,37.45v88.62l-21.42,21.42-6.74,6.74v88.31l78.95,45.58,78.95-45.58V283.69Zm-87.67,97.77-31.49-31.49v-40l18.78,18.78v31.52l12.72,12.72Z"/><text class="cls-4" transform="translate(0 1134.19)"><tspan class="cls-5">d</tspan><tspan x="570.19" y="0">a</tspan><tspan x="1165.75" y="0">ta</tspan><tspan class="cls-5" x="2310.09" y="0">b</tspan><tspan x="2832.7" y="0">ase</tspan></text></g></svg>