<svg xmlns="http://www.w3.org/2000/svg" viewBox="0 0 4121.72 1152.94"><defs><style>.cls-1,.cls-6{fill:#141414}.cls-2{fill:#aa2929}.cls-3,.cls-7{fill:#fff}.cls-4,.cls-5{fill:none;stroke:#141414;stroke-miterlimit:10;stroke-width:10.24px}.cls-5{stroke-dasharray:147.85 4.62}.cls-6,.cls-7{stroke:#fff;stroke-linecap:round;stroke-linejoin:round;stroke-width:10.9px}</style></defs><g id="레이어_2" data-name="레이어 2"><path d="M56 66.73H44.13V54.82a12.66 12.66 0 0 0-3.49-8.62 11.48 11.48 0 0 0-8.42-3.49 11.48 11.48 0 0 0-8.42 3.49 11.82 11.82 0 0 0-3.7 8.62l.41 11.91v6q.41 14.17 18.07 26.49Q56.45 111.08 56 138.59v18.07a17 17 0 0 1-5.13 12.53 17.38 17.38 0 0 1-12.73 5.34H26.27a17.37 17.37 0 0 1-12.73-5.34 17.14 17.14 0 0 1-5.34-12.53v-18.07h11.91v11.91a11.82 11.82 0 0 0 3.7 8.62 11.46 11.46 0 0 0 8.42 3.49 11.47 11.47 0 0 0 8.42-3.49 12.64 12.64 0 0 0 3.49-8.62v-11.91l-.21-6q-.21-14-18.07-26.49Q8 94 8.2 66.73V48.86a17.38 17.38 0 0 1 5.34-12.73 17.38 17.38 0 0 1 12.73-5.33h11.91A17.88 17.88 0 0 1 56 48.86zm96.33-35.93l17.86 143.72h-13.14l-3.7-35.93h-14l-3.9 35.93h-13.1L140.22 30.8zm-.21 95.88l-5.75-54.61-5.75 54.61zM255.19 30.8l17.45 106.77V30.8h11.91v143.72h-18.47l-17.45-107v107h-11.91V30.8zm145.37 35.93h-11.91V54.82a12.66 12.66 0 0 0-3.49-8.62 11.48 11.48 0 0 0-8.42-3.49 11.92 11.92 0 0 0-12.11 12.11v95.68a11.92 11.92 0 0 0 12.11 12.11 11.47 11.47 0 0 0 8.42-3.49 12.64 12.64 0 0 0 3.49-8.62v-35.93h-11.91v-11.91h23.82v54a17 17 0 0 1-5.13 12.53 17.38 17.38 0 0 1-12.73 5.34h-12.12a18.24 18.24 0 0 1-17.86-17.86V48.86a17.38 17.38 0 0 1 5.34-12.73 17.15 17.15 0 0 1 12.52-5.34h12.12a17.88 17.88 0 0 1 17.86 18.07zm79.25-35.93l10.88 101.84L501.37 30.8h13.14l-17.86 143.72h-12.12L466.67 30.8zm113.13 0v143.72H581V30.8zm116.21 35.93h-11.91V54.82a12.66 12.66 0 0 0-3.49-8.62 11.9 11.9 0 0 0-16.84 0 11.82 11.82 0 0 0-3.7 8.62l.41 11.91v6q.41 14.17 18.07 26.49 17.86 11.91 17.45 39.42v18.07a17 17 0 0 1-5.14 12.47 17.37 17.37 0 0 1-12.73 5.34h-11.89a17.37 17.37 0 0 1-12.73-5.34 17.14 17.14 0 0 1-5.34-12.53v-18.06h11.91v11.91a11.82 11.82 0 0 0 3.7 8.62 11.89 11.89 0 0 0 16.84 0 12.64 12.64 0 0 0 3.49-8.62v-11.91l-.21-6q-.21-14-18.07-26.49Q661.1 94 661.31 66.73V48.86a17.38 17.38 0 0 1 5.34-12.73 17.38 17.38 0 0 1 12.73-5.34h11.91a17.87 17.87 0 0 1 17.86 18.07zM934.58 42.7h-35.93v54h35.93v11.91h-35.93v65.91h-11.91V30.8h47.84zm112.72 0h-35.93v54h35.93v11.91h-35.93v54h35.93v11.91h-47.84V30.8h47.84zm113.54 51.13a8.36 8.36 0 0 1-2.46 6.16 2.93 2.93 0 0 1-.62.51 1.11 1.11 0 0 0-.41.51 9.8 9.8 0 0 1-5.13 1.64 8.52 8.52 0 0 1 5.13 1.64l1 1a8.36 8.36 0 0 1 2.46 6.16v63h-11.91v-53.72a12.65 12.65 0 0 0-3.49-8.62 11.48 11.48 0 0 0-8.42-3.49h-12.11v65.91H1113V30.8h30a17.88 17.88 0 0 1 17.86 18.07zm-35.93-51.13v54H1137a11.47 11.47 0 0 0 8.42-3.49 12.41 12.41 0 0 0 3.49-8.42v-30a12.65 12.65 0 0 0-3.49-8.62 11.48 11.48 0 0 0-8.42-3.47zm151.94 51.13a8.36 8.36 0 0 1-2.46 6.16 2.93 2.93 0 0 1-.62.51 1.11 1.11 0 0 0-.41.51 9.8 9.8 0 0 1-5.13 1.64 8.52 8.52 0 0 1 5.13 1.64l1 1a8.36 8.36 0 0 1 2.46 6.16v63h-11.91v-53.72a12.65 12.65 0 0 0-3.49-8.62 11.48 11.48 0 0 0-8.42-3.49h-12.11v65.91H1229V30.8h30a17.88 17.88 0 0 1 17.86 18.07zm-35.93-51.13v54H1253a11.47 11.47 0 0 0 8.42-3.49 12.41 12.41 0 0 0 3.49-8.42v-30a12.65 12.65 0 0 0-3.49-8.62 11.48 11.48 0 0 0-8.42-3.47zm116-11.9v143.72H1345V30.8zM1583 156.66a17 17 0 0 1-5.13 12.53 17.37 17.37 0 0 1-12.73 5.34h-30V30.8h30A17.88 17.88 0 0 1 1583 48.86zM1547 42.7v119.91h12.11a11.47 11.47 0 0 0 8.42-3.49 12.64 12.64 0 0 0 3.49-8.62V54.82a12.65 12.65 0 0 0-3.49-8.62 11.48 11.48 0 0 0-8.42-3.49zm132.48-11.9l17.86 143.72h-13.14l-3.7-35.93h-14l-3.9 35.93h-13.1l17.86-143.72zm-.21 95.88l-5.75-54.61-5.75 54.61zM1801 42.7h-17.86v131.82H1771V42.7h-17.86V30.8H1801zm94.27-11.9l17.86 143.72H1900l-3.7-35.93h-14l-3.9 35.93h-13.14l17.89-143.72zm-.21 95.88l-5.75-54.61-5.75 54.61zm132.43-32.85A8.36 8.36 0 0 1 2025 100a2.93 2.93 0 0 1-.62.51 1.11 1.11 0 0 0-.41.51 9.8 9.8 0 0 1-5.13 1.64 8.52 8.52 0 0 1 5.13 1.64l1 1a8.36 8.36 0 0 1 2.46 6.16v45.17a17 17 0 0 1-5.13 12.53 17.37 17.37 0 0 1-12.73 5.34h-30V30.8h30a17.88 17.88 0 0 1 17.86 18.07zm-35.93-51.13v54h12.11a11.47 11.47 0 0 0 8.42-3.49 12.41 12.41 0 0 0 3.49-8.42v-30a12.65 12.65 0 0 0-3.49-8.62 11.48 11.48 0 0 0-8.42-3.49zm12.11 65.91h-12.11v54h12.11a11.47 11.47 0 0 0 8.42-3.49 12.64 12.64 0 0 0 3.49-8.62v-29.77a12.65 12.65 0 0 0-3.49-8.62 11.48 11.48 0 0 0-8.42-3.5zM2124 30.8l17.86 143.72h-13.14l-3.7-35.93h-14l-3.9 35.93H2094l17.88-143.72zm-.21 95.88L2118 72.07l-5.75 54.61zM2256 66.73h-11.9V54.82a12.66 12.66 0 0 0-3.49-8.62 11.9 11.9 0 0 0-16.84 0 11.82 11.82 0 0 0-3.7 8.62l.41 11.91v6q.41 14.17 18.07 26.49 17.86 11.91 17.45 39.42v18.07a17 17 0 0 1-5.13 12.53 17.37 17.37 0 0 1-12.73 5.34h-11.91a17.37 17.37 0 0 1-12.73-5.34 17.14 17.14 0 0 1-5.34-12.53v-18.12h11.91v11.91a11.82 11.82 0 0 0 3.7 8.62 11.89 11.89 0 0 0 16.84 0 12.64 12.64 0 0 0 3.49-8.62v-11.91l-.21-6q-.21-14-18.07-26.49Q2208 94 2208.17 66.73V48.86a17.38 17.38 0 0 1 5.34-12.73 17.38 17.38 0 0 1 12.73-5.34h11.91A17.87 17.87 0 0 1 2256 48.86zm115.81-24.03h-35.93v54h35.93v11.91h-35.93v54h35.93v11.91H2324V30.8h47.84z" class="cls-1"/><path d="M7.11 211.48h770.54v770.54H7.11z" class="cls-2"/><path d="M770.65 218.48V975H14.11V218.48h756.54m14-14H.11V989h784.54V204.48z" class="cls-3"/><path d="M506.31 362.33h-131.8q-4.44 15.05-10.61 38.92t-12.83 46.44q-6.63 22.56-11.5 39.81t-5.75 18.13q8.83 8 25.21 12.38t34.97 8.84q18.58 4.44 38 9.73a163.36 163.36 0 0 1 34.94 13.71 80.49 80.49 0 0 1 25.21 20.79q9.72 12.4 8.85 31.84-1.78 33.63-16.36 50T451 674.58a77.5 77.5 0 0 1-37.59 1.33q-18.58-4-29.19-11.06-15.92-11.49-41.13-38.48t-45.53-67.67l-33.61 50.42q-20.36 25.66-44.23 42a253.61 253.61 0 0 1-52.63 27.42A543.78 543.78 0 0 1 105.16 698Q72 706.43 34 715.27l-10.66-17.7q76.07-46 115.88-92.88T196.27 514q17.25-43.79 19-82.71t3.54-69h-80.47L95 385.33l-43.34-23v-17.69h178.67q-.89 0 14.15-.44t36.27-.44q21.23 0 43.79.44t36.71.44l77.84-34.5 67.23 34.5zM340 257.06q13.27 15.05 4.42 29.19t-27.86 22.56a107.88 107.88 0 0 1-42 8.85q-23 .45-37.15-11.94-5.31-4.42-14.15-11.94t-19.46-17.25q-10.62-9.72-21.23-21.23a198.51 198.51 0 0 1-19.46-24.77A199.88 199.88 0 0 1 225 214.61q26.54-1.76 57.5 6.19t57.5 36.26zm421.05 705v16.81H268.37q-21.23 0-32.29-8.4t-15.48-19q-5.31-11.51-6.19-27.42V825h-26.54q-8.85 0-8.85-8.85t8.85-8.85h426.36V710H336.48l-74.3 34.5-74.31-34.5v-16.85h415.74l74.3-34.5 74.3 34.5v130.92H360.36v121.18a19.58 19.58 0 0 0 1.77 8.85q3.52 8 14.15 8H562l99.07-46.88zM629.26 470.24H558.5a61.56 61.56 0 0 1-22.56 24.53 61.92 61.92 0 0 1-94.21-52.84h187.53zm-8.84-219.37l-48.65-5.31q-8-1.76-8-8.85 0-8 8.85-8h.88l184.87 17.69V572q0 28.32-21.67 46a153.32 153.32 0 0 1-47.32 26.54q-30.08 10.61-69 15.92z" class="cls-3"/><path d="M779.62 903.99v80h-80" class="cls-4"/><path d="M695 983.99H87.43" class="cls-5"/><path d="M85.12 983.99h-80v-80" class="cls-4"/><path d="M5.12 899.37V291.8" class="cls-5"/><path d="M5.12 289.49v-80h80" class="cls-4"/><path d="M89.74 209.49h607.57" class="cls-5"/><path d="M699.62 209.49h80v80" class="cls-4"/><path d="M779.62 294.11v607.57" class="cls-5"/><path d="M711.32 277.82v637.87H73.45V277.82h637.87m7-7H66.45v651.87h651.87V270.82z" class="cls-2"/><circle cx="693.93" cy="295.91" r="9.36" class="cls-2"/><circle cx="217.04" cy="707.73" r="8.25" class="cls-2"/><path d="M802.07 211.48h770.54v770.54H802.07z" class="cls-1"/><path d="M1565.61 218.48V975H809.07V218.48h756.54m14-14H795.07V989h784.54V204.48z" class="cls-3"/><path d="M1574.58 903.99v80h-80" class="cls-4"/><path d="M1489.96 983.99H882.39" class="cls-5"/><path d="M880.08 983.99h-80v-80" class="cls-4"/><path d="M800.08 899.37V291.8" class="cls-5"/><path d="M800.08 289.49v-80h80" class="cls-4"/><path d="M884.7 209.49h607.57" class="cls-5"/><path d="M1494.58 209.49h80v80" class="cls-4"/><path d="M1574.58 294.11v607.57" class="cls-5"/><path d="M917.81 367l-41.73 22.14L834.35 367v-17h321.91l66.43-30.66 66.43 30.66v17zm157.55 17a263.63 263.63 0 0 1 77.5 11.47q37.46 11.46 65.15 31.84a171.33 171.33 0 0 1 44.71 48 112 112 0 0 1 17 59.86q0 30.58-17 58.6a168.77 168.77 0 0 1-44.72 48.41q-27.68 20.38-65.15 32.27a260 260 0 0 1-155.42 0q-37-11.9-64.72-32.27a163 163 0 0 1-44.28-48.41q-16.61-28-16.61-58.6a114.05 114.05 0 0 1 16.61-59.86 165.37 165.37 0 0 1 44.28-48q27.66-20.38 64.72-31.84a262.25 262.25 0 0 1 77.92-11.47zm52.8-124.34q12.77 14.49 4.26 28.1t-26.83 21.72a103.86 103.86 0 0 1-40.45 8.52q-22.16.44-35.77-11.5-5.11-4.25-13.63-11.5T997 278.4q-10.21-9.4-20.43-20.4a191.11 191.11 0 0 1-18.73-23.84 192.43 192.43 0 0 1 59.61-15.33q25.55-1.7 55.35 6t55.36 34.84zm412.18 700.88V975H1066q-20.44 0-31.08-7.24T1020 951.18q-5.11-10.22-6-24.7v-86.86h-25.51q-8.52 0-8.52-7.66 0-8.5 8.52-8.52H1399v-85.16h-267.44l-71.56 29.8-71.54-29.81v-15.32h400.26l71.54-30.66 71.54 30.66v115.82h-377.24v106.45a16.8 16.8 0 0 0 1.7 7.66q3.39 7.66 13.63 7.66h178.84l95.38-41.73zM1075.35 671q23 0 39.18-11.92t26.83-31.51a160.67 160.67 0 0 0 15.76-43.86 237 237 0 0 0 5.11-49 241.19 241.19 0 0 0-5.11-49.82 160.82 160.82 0 0 0-15.76-43.86q-10.66-19.58-26.83-31.51t-39.18-11.92q-23.85 0-40 11.92t-26.83 31.51a150.85 150.85 0 0 0-15.33 43.86 262 262 0 0 0-4.68 49.82 257.48 257.48 0 0 0 4.68 49 150.73 150.73 0 0 0 15.33 43.86q10.64 19.6 26.83 31.51t40 11.92zm341.5-209.5h-92a59.27 59.27 0 0 1-21.72 23.62 59.61 59.61 0 0 1-90.7-50.87h204.39zm0 161h-92a59.27 59.27 0 0 1-21.72 23.62 59.61 59.61 0 0 1-90.7-50.87h204.39zm119.23-24.7q0 27.27-20.86 44.28a147.6 147.6 0 0 1-45.56 25.55q-29 10.22-66.43 15.33V265.63l-46.84-5.11a6.85 6.85 0 0 1-5.54-2.56 8 8 0 0 1-2.13-5.11q0-8.5 8.52-8.52h.85l178 17z" class="cls-3"/><path d="M1506.28 277.82v637.87H868.41V277.82h637.87m7-7H861.41v651.87h651.87V270.82z" class="cls-1"/><circle cx="881.77" cy="360.76" r="8.07" class="cls-1"/><circle cx="1521.14" cy="829.32" r="3.48" class="cls-1"/><path d="M1597.03 211.48h770.54v770.54h-770.54z" class="cls-1"/><path d="M2360.57 218.48V975H1604V218.48h756.54m14-14H1590V989h784.54V204.48z" class="cls-3"/><path d="M2369.54 903.99v80h-80" class="cls-4"/><path d="M2284.92 983.99h-607.57" class="cls-5"/><path d="M1675.04 983.99h-80v-80" class="cls-4"/><path d="M1595.04 899.37V291.8" class="cls-5"/><path d="M1595.04 289.49v-80h80" class="cls-4"/><path d="M1679.66 209.49h607.57" class="cls-5"/><path d="M2289.54 209.49h80v80" class="cls-4"/><path d="M2369.54 294.11v607.57" class="cls-5"/><path d="M2040.06 301.87v296.19q0 27.81-21.28 45.17a150.56 150.56 0 0 1-46.47 26.06q-29.54 10.42-67.75 15.63v-41.7h-131.15a124.73 124.73 0 0 1-34.31 21.28 252.17 252.17 0 0 1-36.92 12.59 344.65 344.65 0 0 1-42.56 7.82v-378.7l-47.77-5.21a7 7 0 0 1-5.65-2.61 8.21 8.21 0 0 1-2.17-5.21q0-8.67 8.69-8.69h.87l181.54 17.37v82.52h109.44v-78.17l-47.78-5.21a7 7 0 0 1-5.65-2.61 8.14 8.14 0 0 1-2.17-5.21q0-8.67 8.69-8.69h.87zm-135.5 313.56V412.18h-109.44v186.68a52.19 52.19 0 0 1-2.61 16.57zm445.59 252.76q0 20.85-11.29 36a102.65 102.65 0 0 1-27.8 25.62 185.55 185.55 0 0 1-35.61 17.37 311 311 0 0 1-36 10.86q-16.94 3.91-28.66 5.65c-7.82 1.15-12 1.74-12.59 1.74V743.11h-255.42l-73.83 33-73-33v-16.5h554.16zm10.42-277.08q0 27.81-18.24 44.73a139.42 139.42 0 0 1-40.82 26.49q-26.06 10.42-59.06 15.64V479.06h-55.59v112q0 27.81-18.24 44.73a139.42 139.42 0 0 1-40.82 26.49q-26.06 10.42-59.06 15.64V276.68l-47.74-5.21q-7.82-1.73-7.82-8.69 0-7.82 8.69-7.82h.87l164.16 17.37v178.93h55.59V249.83l-47.77-5.23q-7.82-1.75-7.82-8.73 0-7.84 8.69-7.85h.87l164.16 17.37z" class="cls-3"/><path d="M2301.24 277.82v637.87h-637.87V277.82h637.87m7-7h-651.87v651.87h651.87V270.82z" class="cls-1"/><circle cx="1686.15" cy="653.22" r="11.83" class="cls-1"/><path d="M2391.99 211.5h770.54v770.54h-770.54z" class="cls-1"/><path d="M3155.54 218.5V975H2399V218.5h756.54m14-14H2385V989h784.54V204.5z" class="cls-3"/><path d="M3164.5 904v80h-80" class="cls-4"/><path d="M3079.88 984h-607.57" class="cls-5"/><path d="M2470 984h-80v-80" class="cls-4"/><path d="M2390 899.38V291.81" class="cls-5"/><path d="M2390 289.5v-80h80" class="cls-4"/><path d="M2474.62 209.5h607.57" class="cls-5"/><path d="M3084.5 209.5h80v80" class="cls-4"/><path d="M3164.5 294.12v607.57" class="cls-5"/><path d="M2494.78 819.18l-47.89 21.11-47.89-21.11v-16.23h343.37q47.07-3.23 77.52-7.71t50.33-10.55q19.88-6.09 31.25-14.61a90.62 90.62 0 0 0 19.89-20.7A312.69 312.69 0 0 0 2938.8 721q8.92-16.23 22.73-37.34l5.68 8.12q7.31 36.53-16.23 64.13-10.56 12.18-28.41 23.54t-47.08 20.29q-29.22 8.94-70.62 14.21t-98.22 5.28zm342.55-500.84q0 82.8-2.44 147.33t-20.7 114q-18.26 49.52-59.26 85.23t-118.11 60.88l-9.74-14.61q37.33-54.37 53.17-114t20.29-112.43q4.45-52.76 1.62-93.35t-2.84-57.63h-181.81l-39.78 21.11-39.73-21.11v-15.42h263l68.19-31.66zm-217.54 492.73h-118.52V532.64a306.41 306.41 0 0 1 59.26 14.61 150.35 150.35 0 0 1 40.59 24.75q18.66 15.83 18.67 41.8zm478.93-307.65a56.81 56.81 0 0 1 56.82 56.82h-129.88v299.53q0 26-19.89 42.21a141.24 141.24 0 0 1-43.43 24.35q-27.61 9.74-63.32 14.61V272.88l-44.64-4.88q-7.31-1.62-7.31-8.12 0-7.31 8.12-7.31h.81l169.65 16.24v264.64h22.73a56.38 56.38 0 0 1 50.33-30z" class="cls-3"/><path d="M3096.2 277.83V915.7h-637.87V277.83h637.87m7-7h-651.87V922.7h651.87V270.83z" class="cls-1"/><circle cx="2691.66" cy="676.72" r="11.67" class="cls-1"/><circle cx="3121.3" cy="548.73" r="6.26" class="cls-1"/><path d="M4116.27 1005.15l-464.73-216.7V81.99l464.73 216.71v706.45z" class="cls-6"/><path d="M4040.54 1028.9l-464.73-216.7V105.74l464.73 216.71v706.45z" class="cls-7"/><path d="M3964.81 1052.62l-464.72-216.71V129.46l464.72 216.7v706.46z" class="cls-6"/><path d="M3889.09 1076.33l-464.73-216.7V153.17l464.73 216.71v706.45z" class="cls-7"/><path d="M3813.36 1100.05l-464.73-216.71V176.89l464.73 216.71v706.45z" class="cls-6"/><path d="M3737.63 1123.77L3272.9 907.06V200.6l464.73 216.71v706.46z" class="cls-7"/><path d="M3661.9 1147.48l-464.73-216.7V224.32l464.73 216.71v706.45z" class="cls-6"/><path d="M3398.3 917.57l-50.94-74.69v-64.72l30.37 44.54v51l20.57 30.17zm141.82-92V715.2l-67.39-98.85V467.76l-64.85-95.26V392l23.47 33v144.7l-28.88 15.3v125.09l71.71 105.15v18.18l5.34 7.83v-85.44l-27.47-40.27V608l5.55 8.14v93.68l30.25 44.36v111.54l-35.75 19.08v-28.69l-55.1-80.82v-85.1l.07.09v-145l22-11.76v-84L3408 454v59l-60.59 32.34v143.4l-34.65 18.49-10.91 5.82v142.87l127.71 133.29L3557.25 975V850.64z" class="cls-3"/></g></svg>