<svg xmlns="http://www.w3.org/2000/svg" viewBox="0 0 2485.34 1059.25"><defs><style>.cls-1{fill:#aa2929}</style></defs><g id="레이어_2" data-name="레이어 2"><path d="M1487.55 228.75v-35.6l-21.75-21.76v-47.95l-20.93-21v6.29l7.57 7.11v46.69l-9.32 9.29v40.37l23.14 23.14v5.87l1.72 1.72v-27.55l-8.86-8.86v-34.69l1.79 1.79v30.23l9.76 9.76v36l-11.53 11.53v-9.26l-17.79-17.79v-74.23l7.11-7.11v-27.12l-3.58 3.13v19l-19.55 19.55v46.27l-11.18 11.18-3.52 3.52v46.1l41.21 23.79 41.21-23.79v-40.09zm-45.77 51l-16.44-16.44v-20.84l9.8 9.8v16.45l6.64 6.64z"/><path d="M259.6 873.16q0 32.1-22.29 54.39-23.2 23.2-55.28 23.18H51.83V326.55H182q32.1 0 55.28 23.18Q259.58 372 259.6 405zm-156-494.89V899h52.61a49.8 49.8 0 0 0 36.56-15.16q15.15-16.93 15.16-37.45V430.88q0-20.5-15.16-37.45a49.86 49.86 0 0 0-36.56-15.16z" class="cls-1"/><path d="M500.35 326.55l77.58 624.18h-57.07l-16.05-156h-60.64l-16.94 156h-57.07l77.58-624.18zM499.46 743l-25-237.19L449.52 743zm350.43-364.73h-77.57v572.46h-52.61V378.27h-77.58v-51.72h207.76zm230.94-51.72l77.58 624.18h-57.07l-16.05-156h-60.63l-16.94 156h-57.08l77.58-624.18zm-.89 416.45l-25-237.19L1030 743z"/><path d="M1476.73 600.3q0 16.05-10.7 26.75a12.72 12.72 0 0 1-2.67 2.23 4.81 4.81 0 0 0-1.78 2.23q-11.6 7.15-22.29 7.13a37 37 0 0 1 22.29 7.13l4.46 4.46q10.7 10.7 10.7 26.75v196.18q0 32.1-22.29 54.39-23.2 23.2-55.29 23.18H1269V326.55h130.19q32.1 0 55.29 23.18 22.28 22.3 22.29 55.28zm-156-222v234.48h52.61a49.81 49.81 0 0 0 36.56-15.16q15.1-16.93 15.1-36.56V430.88q0-20.5-15.16-37.45a49.86 49.86 0 0 0-36.56-15.16zm52.57 286.2h-52.61V899h52.61a49.8 49.8 0 0 0 36.56-15.16q15.14-16.91 15.14-37.43v-129.3q0-20.5-15.16-37.45a49.86 49.86 0 0 0-36.54-15.16z" class="cls-1"/><path d="M1717.49 326.55l77.58 624.18H1738l-16.05-156h-60.63l-16.94 156h-57.08l77.58-624.18zM1716.6 743l-25-237.19-25 237.19zm395.9-260.4h-51.72v-51.72q0-20.5-15.16-37.45a51.67 51.67 0 0 0-73.12 0q-16.05 16.05-16 37.45l1.78 51.72v25.86q1.78 61.53 78.47 115 77.58 51.73 75.79 171.2v78.47q0 32.1-22.29 54.39-23.2 23.2-55.29 23.18h-51.72q-32.1 0-55.28-23.18t-23.18-54.39v-78.44h51.72v51.72q0 21.4 16 37.45a51.66 51.66 0 0 0 73.12 0q15.15-16.93 15.16-37.45v-51.72l-.89-25.86q-.9-60.63-78.47-115-77.58-52.6-76.69-171.2V405q0-32.1 23.18-55.28t55.28-23.18h51.72q32.1 0 55.29 23.18 22.29 22.28 22.3 55.28zm324.56-104.33H2281v234.51h156v51.72h-156V899h156v51.72h-207.7V326.55h207.76zM117.28 153.94h-15.37v-15.38a16.34 16.34 0 0 0-4.51-11.14 15.36 15.36 0 0 0-21.74 0 15.26 15.26 0 0 0-4.77 11.14l.53 15.38v7.69q.53 18.29 23.33 34.2 23.07 15.38 22.54 50.9v23.33a22 22 0 0 1-6.63 16.17 22.43 22.43 0 0 1-16.44 6.89H78.84a22.43 22.43 0 0 1-16.44-6.89 22.12 22.12 0 0 1-6.89-16.17v-23.33h15.38v15.38a15.26 15.26 0 0 0 4.77 11.14 15.36 15.36 0 0 0 21.74 0 16.32 16.32 0 0 0 4.51-11.14v-15.38l-.27-7.69q-.27-18-23.33-34.2-23.07-15.64-22.8-50.9v-23.07a23.54 23.54 0 0 1 23.33-23.33h15.38a23.08 23.08 0 0 1 23.07 23.33zm177.37-46.4l23.07 185.58h-17L296 246.73h-18l-5 46.4h-17l23-185.59zm-.27 123.81L287 160.83l-7.42 70.52zm186.11-123.81L503 245.41V107.54h15.38v185.59h-23.83L472 155v138.13h-15.37V107.54zm240.73 46.4h-15.38v-15.38a16.34 16.34 0 0 0-4.51-11.14 14.83 14.83 0 0 0-10.87-4.51 15.39 15.39 0 0 0-15.64 15.64v123.56a15.39 15.39 0 0 0 15.64 15.64 14.81 14.81 0 0 0 10.87-4.51 16.32 16.32 0 0 0 4.51-11.14v-46.4h-15.37v-15.36h30.75v69.73a22 22 0 0 1-6.63 16.17 22.43 22.43 0 0 1-16.44 6.89h-15.64a23.55 23.55 0 0 1-23.07-23.07V130.87a22.43 22.43 0 0 1 6.89-16.44 22.14 22.14 0 0 1 16.17-6.89h15.64a23.08 23.08 0 0 1 23.07 23.33zm155.36-46.4L890.63 239l13.79-131.5h17l-23.1 185.63h-15.64l-23.07-185.59zm199.1 0v185.59h-15.38V107.54zm203.08 46.4h-15.38v-15.38a16.34 16.34 0 0 0-4.51-11.14 15.36 15.36 0 0 0-21.74 0 15.26 15.26 0 0 0-4.77 11.14l.53 15.38v7.69q.53 18.29 23.33 34.2 23.07 15.38 22.54 50.9v23.33a22 22 0 0 1-6.63 16.17 22.43 22.43 0 0 1-16.44 6.89h-15.38a22.43 22.43 0 0 1-16.44-6.89 22.12 22.12 0 0 1-6.89-16.17v-23.33h15.38v15.38a15.26 15.26 0 0 0 4.77 11.14 15.36 15.36 0 0 0 21.74 0 16.32 16.32 0 0 0 4.51-11.14v-15.38l-.27-7.69q-.27-18-23.33-34.2-23.07-15.64-22.8-50.9v-23.07a23.54 23.54 0 0 1 23.33-23.33h15.38a23.08 23.08 0 0 1 23.07 23.33zm397.15-31.02h-46.4v69.73h46.4V208h-46.4v85.1h-15.38V107.54h61.77zm198.57 0h-46.4v69.73h46.4V208h-46.4v69.73h46.4v15.38h-61.77V107.54h61.77zm199.63 66.02a10.79 10.79 0 0 1-3.18 8 3.78 3.78 0 0 1-.79.66 1.43 1.43 0 0 0-.53.66 12.67 12.67 0 0 1-6.63 2.12 11 11 0 0 1 6.63 2.12l1.32 1.33a10.79 10.79 0 0 1 3.18 8v81.39h-15.38v-69.55a16.34 16.34 0 0 0-4.51-11.13 14.82 14.82 0 0 0-10.87-4.51h-15.64v85.1h-15.38V107.54H2051a23.08 23.08 0 0 1 23.07 23.33zm-46.4-66v69.73h15.64a14.81 14.81 0 0 0 10.87-4.51 16 16 0 0 0 4.51-10.87v-38.73a16.34 16.34 0 0 0-4.51-11.14 14.83 14.83 0 0 0-10.87-4.51zm249.22 66a10.79 10.79 0 0 1-3.18 8 3.78 3.78 0 0 1-.79.66 1.43 1.43 0 0 0-.53.66 12.67 12.67 0 0 1-6.63 2.12 11 11 0 0 1 6.63 2.12l1.32 1.33a10.79 10.79 0 0 1 3.18 8v81.39h-15.38v-69.55a16.34 16.34 0 0 0-4.51-11.13 14.82 14.82 0 0 0-10.87-4.51h-15.64v85.1h-15.38V107.54h38.71a23.08 23.08 0 0 1 23.07 23.33zm-46.4-66v69.73h15.64a14.81 14.81 0 0 0 10.87-4.51 16 16 0 0 0 4.51-10.87v-38.73a16.34 16.34 0 0 0-4.51-11.14 14.83 14.83 0 0 0-10.87-4.51zm202.82-15.4v185.59H2418V107.54zM0 0h2485.34v56.15H0zm0 1003.1h2485.34v56.15H0z"/></g></svg>