<svg xmlns="http://www.w3.org/2000/svg" viewBox="0 0 930 1076.39"><defs><style>.cls-1{fill:#0c0c0c;}.cls-1,.cls-2{stroke:#fff;stroke-linecap:round;stroke-linejoin:round;stroke-width:10.9px;}.cls-2,.cls-3{fill:#fff;}</style></defs><title>대지 1</title><g id="레이어_2" data-name="레이어 2"><polygon class="cls-1" points="924.55 928.61 459.82 711.91 459.82 5.45 924.55 222.16 924.55 928.61"/><polygon class="cls-2" points="848.82 952.36 384.09 735.65 384.09 29.2 848.82 245.91 848.82 952.36"/><polygon class="cls-1" points="773.09 976.08 308.37 759.37 308.37 52.92 773.09 269.62 773.09 976.08"/><polygon class="cls-2" points="697.37 999.79 232.64 783.09 232.64 76.63 697.37 293.34 697.37 999.79"/><polygon class="cls-1" points="621.64 1023.51 156.91 806.8 156.91 100.35 621.64 317.06 621.64 1023.51"/><polygon class="cls-2" points="545.91 1047.23 81.18 830.52 81.18 124.06 545.91 340.77 545.91 1047.23"/><polygon class="cls-1" points="470.18 1070.94 5.45 854.24 5.45 147.78 470.18 364.49 470.18 1070.94"/><path class="cls-3" d="M206.58,841l-50.94-74.69V701.62L186,746.15v51l20.57,30.17ZM348.4,749V638.66L281,539.8V391.22L216.17,296v19.49l23.47,33v144.7l-28.9,15.33V633.55L282.46,738.7v18.18l5.34,7.83V679.27L260.33,639V531.49l5.55,8.14V633.3l30.25,44.36V789.18l-35.74,19.08V779.57l-55.12-80.83v-85.1l.07.09v-145l22-11.76V373l-11.1,4.53v59l-60.59,32.34V612.2L121,630.69l-10.91,5.82V779.38L237.82,912.67l127.71-14.18V774.1Z"/></g></svg>